<?xml version="1.0" encoding="utf-8"?>
<!-- Generator: Adobe Illustrator 24.2.3, SVG Export Plug-In . SVG Version: 6.00 Build 0)  -->
<svg version="1.1" id="Layer_1" xmlns="http://www.w3.org/2000/svg" xmlns:xlink="http://www.w3.org/1999/xlink" x="0px" y="0px"
	 viewBox="0 0 691 258" style="enable-background:new 0 0 691 258;" xml:space="preserve">
<style type="text/css">
	.st0{fill:url(#SVGID_1_);}
	.st1{fill:#CCCCCC;}
	.st2{fill:#4D4D4D;}
	.st3{fill:#0AC18E;}
	.st4{fill:#FFFFFF;}
</style>
<g>
	<linearGradient id="SVGID_1_" gradientUnits="userSpaceOnUse" x1="345.5" y1="1.5" x2="345.5" y2="256.5">
		<stop  offset="0" style="stop-color:#FFFFFF"/>
		<stop  offset="0.31237" style="stop-color:#FBFBFB"/>
		<stop  offset="0.6359" style="stop-color:#EEEFF0"/>
		<stop  offset="0.96359" style="stop-color:#DADCDD"/>
		<stop  offset="1" style="stop-color:#D7D9DA"/>
	</linearGradient>
	<path class="st0" d="M50,256.5c-26.74316,0-48.5-21.75684-48.5-48.5V50C1.5,23.25684,23.25684,1.5,50,1.5h591
		c26.74316,0,48.5,21.75684,48.5,48.5v158c0,26.74316-21.75684,48.5-48.5,48.5H50z"/>
	<path class="st1" d="M641,3c25.91589,0,47,21.08409,47,47v158c0,25.91591-21.08411,47-47,47H50c-25.91591,0-47-21.08409-47-47V50
		C3,24.08409,24.08409,3,50,3H641 M641,0H50C22.38573,0,0,22.38573,0,50v158c0,27.61427,22.38573,50,50,50h591
		c27.61426,0,50-22.38573,50-50V50C691,22.38573,668.61426,0,641,0L641,0z"/>
</g>
<path class="st2" d="M288.14999,180.39999c-0.39999-2.8-0.89999-5.60001-1.29999-8.3s-0.89999-5.2-1.39999-7.39999h-6.5
	c-1.60001,2.3-3.10001,4.60001-4.70001,6.89999s-3.10001,4.8-4.79999,7.39999s-3.29999,5.39999-5.10001,8.3
	c-1.70001,2.89999-3.60001,6.10001-5.60001,9.60001h7.5c0.70001-1.3,1.29999-2.39999,2-3.60001s1.39999-2.39999,2-3.5h12.10001
	c0.10001,1.2,0.20001,2.3,0.29999,3.5s0.10001,2.39999,0.20001,3.60001h7.29999c-0.29999-2.5-0.60001-5.2-0.89999-8
	C288.85001,186.10001,288.54999,183.2,288.14999,180.39999z M273.25,184.2c1.08102-2.16579,2.28293-4.2691,3.60001-6.3
	c1.20001-2.10001,2.5-4.10001,3.79999-6.2c0.29999,2.2,0.60001,4.3,0.79999,6.5c0.20001,2.10001,0.29999,4.10001,0.5,6H273.25z"/>
<path class="st2" d="M304.85001,174c0.98605-1.20572,2.21198-2.19328,3.60001-2.89999
	c1.49158-0.73804,3.13586-1.11485,4.79999-1.10001c1.11066,0.02199,2.21625,0.15599,3.29999,0.39999
	c1.2121,0.34393,2.38507,0.81313,3.5,1.39999l2.60001-5.60001c-1.39349-0.838-2.91299-1.4458-4.5-1.8
	c-1.44519-0.31972-2.91989-0.48729-4.39999-0.5c-2.86911-0.05464-5.71127,0.56174-8.29999,1.8
	c-2.31003,1.12711-4.38116,2.68893-6.10001,4.60001c-1.66083,1.87323-2.95038,4.04512-3.79999,6.39999
	c-0.86581,2.30145-1.3063,4.74107-1.29999,7.2c-0.02615,1.93735,0.2782,3.86496,0.89999,5.7
	c0.56412,1.59576,1.44894,3.05913,2.60001,4.3c1.13412,1.21133,2.53918,2.13661,4.10001,2.7
	c1.6788,0.69528,3.48328,1.03575,5.29999,1c1.91751,0.03679,3.83218-0.16476,5.70001-0.60001
	c1.44025-0.3792,2.8454-0.88103,4.20001-1.5l-0.79999-5.89999c-1.12241,0.51906-2.29526,0.92117-3.5,1.2
	c-1.34137,0.33208-2.71814,0.49998-4.10001,0.5c-1.89478,0.13406-3.75479-0.55887-5.10001-1.89999
	c-1.19998-1.3-1.79999-3.3-1.79999-6c0.00555-1.7308,0.27533-3.45062,0.79999-5.10001
	C303.00995,176.72255,303.79321,175.25816,304.85001,174z"/>
<path class="st2" d="M332.95001,174c0.98605-1.20572,2.21198-2.19328,3.60001-2.89999
	c1.49158-0.73804,3.13586-1.11485,4.79999-1.10001c1.11066,0.02199,2.21625,0.15599,3.29999,0.39999
	c1.2121,0.34393,2.38507,0.81313,3.5,1.39999l2.60001-5.60001c-1.39349-0.838-2.91299-1.4458-4.5-1.8
	c-1.44519-0.31972-2.91989-0.48729-4.39999-0.5c-2.86911-0.05464-5.71127,0.56174-8.29999,1.8
	c-2.31003,1.12711-4.38116,2.68893-6.10001,4.60001c-1.66083,1.87323-2.95038,4.04512-3.79999,6.39999
	c-0.86581,2.30145-1.3063,4.74107-1.29999,7.2c-0.02615,1.93735,0.2782,3.86496,0.89999,5.7
	c0.56412,1.59576,1.44894,3.05913,2.60001,4.3c1.13412,1.21133,2.53918,2.13661,4.10001,2.7
	c1.6788,0.69528,3.48328,1.03575,5.29999,1c1.91751,0.03674,3.83218-0.16481,5.70001-0.60001
	c1.44025-0.3792,2.8454-0.88103,4.20001-1.5l-0.79999-5.89999c-1.12241,0.51906-2.29526,0.92117-3.5,1.2
	c-1.34137,0.33208-2.71814,0.49998-4.10001,0.5c-1.89478,0.13406-3.75479-0.55887-5.10001-1.89999
	c-1.19998-1.3-1.79999-3.3-1.79999-6c0.00555-1.7308,0.27533-3.45062,0.79999-5.10001
	C331.10995,176.72255,331.89322,175.25816,332.95001,174z"/>
<polygon class="st2" points="371.95001,183.10001 373.35001,177.2 361.14999,177.2 362.64999,170.7 376.45001,170.7 
	377.95001,164.7 356.85001,164.7 349.14999,196.89999 349.14999,197 371.25,197 372.75,191 357.85001,191 359.75,183.10001 "/>
<path class="st2" d="M401.95001,166.7c-1.20334-0.85487-2.56213-1.46634-4-1.8c-1.73483-0.41974-3.51523-0.62129-5.29999-0.60001
	c-1.29999,0-2.70001,0.10001-4.10001,0.10001c-1.5,0.2-3.10001,0.39999-4.79999,0.7l-7.60001,31.8h7.20001l2.60001-10.8H387.75
	c2.35004-0.0148,4.69357-0.24915,7-0.7c1.98502-0.33087,3.88687-1.04408,5.60001-2.10001
	c1.54684-0.96185,2.82083-2.30472,3.70001-3.89999c0.88397-1.8396,1.32895-3.85924,1.29999-5.89999
	c0.0343-1.35515-0.27533-2.6969-0.89999-3.89999C403.84473,168.45807,402.9903,167.46692,401.95001,166.7z M397.95001,174.2
	c0.03778,0.93683-0.16901,1.86736-0.60001,2.7c-0.46796,0.71893-1.08105,1.33206-1.79999,1.8
	c-0.81583,0.52721-1.73758,0.86861-2.70001,1c-1.18857,0.20779-2.39343,0.30821-3.60001,0.3h-1.79999l2.20001-9.5
	c0.39999,0,0.70001-0.10001,1.10001-0.10001h1.29999c1.50714-0.05292,3.00793,0.21996,4.39999,0.8
	C397.47214,171.84041,398.05096,172.99806,397.95001,174.2z"/>
<polygon class="st2" points="435.95001,164.7 409.85001,164.7 408.35001,170.8 417.75,170.8 411.45001,196.89999 418.75,196.89999 
	425.04999,170.8 434.45001,170.8 "/>
<polygon class="st2" points="454.85001,183.10001 456.25,177.2 444.04999,177.2 445.54999,170.7 459.35001,170.7 460.85001,164.7 
	439.75,164.7 432.04999,196.89999 432.04999,197 454.14999,197 455.64999,191 440.75,191 442.64999,183.10001 "/>
<path class="st2" d="M486.85001,168c-1.32004-1.22205-2.88947-2.14323-4.60001-2.7
	c-2.00717-0.62119-4.09906-0.92485-6.20001-0.89999c-1.29999,0-2.79999,0.10001-4.39999,0.2s-3.29999,0.39999-5.10001,0.7
	l-7.5,31.10001c1.60001,0.3,3.20001,0.5,4.89999,0.7c1.70001,0.10001,3.20001,0.2,4.5,0.2
	c3.15515,0.0369,6.29553-0.43585,9.29999-1.39999c2.57281-0.86197,4.95117-2.22104,7-4c1.93713-1.72881,3.44382-3.88609,4.39999-6.3
	c1.0329-2.67822,1.54211-5.52982,1.5-8.39999c-0.02106-1.73759-0.32504-3.46016-0.89999-5.10001
	C489.11411,170.52708,488.12131,169.12347,486.85001,168z M482.25,183.3c-0.56412,1.59576-1.44894,3.05913-2.60001,4.3
	c-1.13412,1.21133-2.53918,2.13661-4.10001,2.7c-1.76788,0.61421-3.62854,0.91869-5.5,0.89999h-1.5
	c-0.29999,0-0.70001-0.10001-1-0.10001l4.89999-20.7c0.93088-0.0833,1.86554-0.11668,2.79999-0.10001
	c1.21796-0.00975,2.43079,0.15871,3.60001,0.5c0.92291,0.33275,1.77209,0.84225,2.5,1.5c0.65002,0.63882,1.1311,1.42918,1.39999,2.3
	c0.293,0.97215,0.42804,1.98505,0.39999,3C483.17615,179.53734,482.8718,181.46497,482.25,183.3z"/>
<polygon class="st2" points="528.75,164.7 525.75,177.10001 514.25,177.10001 517.25,164.7 509.95001,164.7 502.25,196.89999 
	509.45001,196.89999 512.75,183.2 524.25,183.2 520.95001,196.89999 528.25,196.89999 536.04999,164.7 "/>
<polygon class="st2" points="557.65002,183.10001 559.04999,177.2 546.84998,177.2 548.34998,170.7 562.15002,170.7 
	563.65002,164.7 542.54999,164.7 534.84998,196.89999 534.84998,197 556.95001,197 558.45001,191 543.54999,191 
	545.45001,183.10001 "/>
<path class="st2" d="M587.84998,167c-1.17725-0.88292-2.49603-1.55922-3.90002-2c-1.75159-0.51785-3.57428-0.75414-5.40002-0.7
	c-1.29999,0-2.70001,0.10001-4.20001,0.2c-1.59998,0.2-3.20001,0.39999-4.90002,0.7l-7.59991,31.8h7.20001l2.79999-11.8h3.59998
	c0.99316,1.70778,1.79791,3.5184,2.40002,5.39999c0.79999,2,1.5,4.2,2.20001,6.3h7.79999c-0.79999-2.5-1.70001-4.89999-2.59998-7.2
	c-0.76611-2.02522-1.66815-3.99637-2.70001-5.89999c1.46716-0.38898,2.8548-1.03203,4.09998-1.89999
	c1.00568-0.67554,1.88556-1.52159,2.59998-2.5c0.61322-0.83876,1.05499-1.79027,1.29999-2.8
	c0.19873-0.98766,0.29919-1.99255,0.29999-3c0.02881-1.23642-0.21002-2.46446-0.70001-3.60001
	C589.64978,168.82133,588.85834,167.78905,587.84998,167z M583.34998,176.2c-0.2796,0.64172-0.72906,1.19495-1.29999,1.60001
	c-0.77795,0.48146-1.61945,0.85172-2.5,1.10001c-1.24304,0.30272-2.52112,0.43726-3.79999,0.39999h-2.5l2.09998-8.8
	c0.40002,0,0.79999-0.10001,1.40002-0.10001h1.59998c0.93878,0.03989,1.87402,0.14009,2.79999,0.3
	c1.12598,0.27019,2.03314,1.10173,2.40002,2.2c0.11597,0.49217,0.18298,0.99463,0.20001,1.5
	C583.76099,175.02319,583.6239,175.64011,583.34998,176.2z"/>
<polygon class="st2" points="618.95001,170.7 620.45001,164.7 599.34998,164.7 591.65002,196.89999 591.65002,197 613.75,197 
	615.25,191 600.34998,191 602.25,183.10001 614.45001,183.10001 615.84998,177.2 603.65002,177.2 605.15002,170.7 "/>
<path class="st2" d="M216.35001,99.139c5.14665-3.07467,7.72-7.281,7.72-12.619c0.09195-3.10976-0.66295-6.18606-2.18401-8.9
	c-1.46786-2.4398-3.54884-4.45287-6.036-5.839c-2.86058-1.57359-5.97806-2.6263-9.207-3.109
	c-3.87273-0.65771-7.79596-0.97227-11.724-0.94c-3.17,0-6.582,0.139-10.23801,0.439c-3.4025,0.24968-6.78928,0.68029-10.146,1.29
	v64.763c3.73393,0.79497,7.51991,1.32198,11.32899,1.577c3.61,0.243,7.28,0.349,10.936,0.349
	c10.10001,0,17.66901-1.729,22.85699-5.343c5.10001-3.518,7.674-8.766,7.674-15.789c0.04106-3.2616-0.75826-6.47886-2.321-9.342
	C223.48,102.945,220.61301,100.716,216.35001,99.139z M189.186,94.744c0,0,0-14.545,0.015-14.545
	c1.183-0.137,2.47301-0.2,3.959-0.243s2.866-0.045,4.155-0.045c3.95934,0,6.97766,0.546,9.05499,1.638
	c2.033,1.092,3.064,2.972,3.064,5.687c0.16005,2.31707-0.98711,4.52958-2.97301,5.734c-2.032,1.183-5.293,1.774-9.94901,1.774
	L189.186,94.744z M207.90201,121.966c-3.44987,1.41551-7.16388,2.07236-10.89,1.926c-1.547,0-2.97301-0.048-4.26199-0.106
	s-2.472-0.149-3.564-0.3v-17.26h0.015v0.06h9.44897c4.308,0,7.629,0.637,9.95,1.972c2.32001,1.289,3.45799,3.519,3.45799,6.582
	c0.00102,3.471-1.37898,5.83701-4.15498,7.12601H207.90201z"/>
<path class="st2" d="M240.13499,61.452c-2.22585-0.024-4.37973,0.78781-6.036,2.275c-1.75478,1.58346-2.70221,3.87362-2.57899,6.234
	c-0.10405,2.35706,0.84013,4.63935,2.57899,6.234c3.45288,3.03295,8.62012,3.03295,12.073,0
	c1.75392-1.58399,2.70088-3.87388,2.578-6.234c0.11569-2.35889-0.83003-4.64581-2.578-6.234
	C244.52229,62.22837,242.36345,61.41483,240.13499,61.452z"/>
<rect x="233.02" y="84.6" class="st2" width="14.349" height="50.716"/>
<path class="st2" d="M282.19101,123.865c-1.56662,0.28387-3.15491,0.43109-4.74701,0.44c-3.215,0-5.39999-0.941-6.431-2.715
	c-1.14481-2.2285-1.68835-4.71712-1.577-7.22V96.564h17.26001V84.6H269.436V69.658l-14.34799,2.32h-0.061v42.65
	c-0.00905,3.0081,0.30611,6.00843,0.94,8.949c0.51981,2.51006,1.62131,4.86311,3.216,6.87
	c1.63132,2.00816,3.76682,3.54697,6.18799,4.459c3.12271,1.13382,6.43109,1.66916,9.75201,1.578
	c2.62534,0.03784,5.24628-0.2269,7.811-0.789c1.97568-0.46167,3.91278-1.07516,5.79401-1.83501l-2.03201-11.178
	C285.22678,123.19082,283.7207,123.58631,282.19101,123.865z"/>
<path class="st2" d="M322.099,123.877c-1.84863,0.32885-3.72235,0.49615-5.60001,0.5c-4.83801,0-8.26599-1.243-10.23801-3.761
	c-1.92599-2.472-2.91199-6.036-2.91199-10.587c0-4.30667,1.03665-7.76966,3.10999-10.389c2.077-2.624,5.23199-3.959,9.49399-3.959
	c1.81726-0.02084,3.6304,0.17793,5.39999,0.592c1.51205,0.35411,3.00113,0.79994,4.45901,1.335l2.97198-11.482
	c-2.1105-0.89208-4.29877-1.58769-6.53699-2.078c-2.43726-0.51894-4.92422-0.7681-7.41599-0.743
	c-3.76944-0.07882-7.51254,0.64485-10.98099,2.123c-6.24515,2.6498-11.08868,7.80288-13.34702,14.2
	c-1.19894,3.31584-1.79993,6.81815-1.77499,10.344c0.00381,3.58678,0.4642,7.15848,1.37,10.629
	c0.90894,3.12574,2.51602,6.00417,4.70001,8.418c2.2995,2.47426,5.12396,4.4021,8.26599,5.642
	c3.81461,1.46899,7.88046,2.17502,11.96701,2.078c2.78946,0.00909,5.57309-0.25516,8.311-0.789
	c2.14807-0.40578,4.2514-1.02037,6.28-1.83501l-2.03299-11.77C325.82718,123.0743,323.98389,123.58867,322.099,123.877z"/>
<path class="st2" d="M372.17801,90.634c-2.20929-2.33985-4.89279-4.18092-7.871-5.4c-3.19968-1.30903-6.62912-1.96391-10.086-1.926
	c-3.42902-0.03801-6.83038,0.6171-10,1.926c-2.98337,1.23492-5.67914,3.07341-7.918,5.4
	c-2.28223,2.40171-4.04761,5.24598-5.18701,8.357c-1.28674,3.48465-1.92392,7.17563-1.88,10.89
	c-0.05084,3.72569,0.57077,7.42999,1.83499,10.935c1.10306,3.14023,2.83887,6.02065,5.10001,8.46301
	c2.20627,2.35493,4.89017,4.21136,7.87201,5.44501c6.56772,2.56897,13.86227,2.56897,20.42999,0
	c2.98019-1.23613,5.66327-3.09222,7.871-5.44501c2.24405-2.43567,3.94495-5.32037,4.98999-8.463
	c1.18085-3.52338,1.76523-7.21918,1.729-10.935c0.0293-3.70515-0.57437-7.38809-1.785-10.89
	C376.16687,95.88613,374.43118,93.04193,372.17801,90.634z M361.758,120.422c-2.98599,4.19267-8.80545,5.17088-12.99811,2.1849
	c-0.84482-0.60165-1.58325-1.3401-2.18491-2.1849c-1.82001-2.579-2.715-6.082-2.715-10.541c0-4.4,0.94101-7.917,2.715-10.435
	c3.12939-4.19267,9.06512-5.05463,13.25778-1.92522c0.73111,0.54569,1.37955,1.19413,1.92523,1.92522
	c1.76901,2.518,2.66901,5.976,2.66901,10.435C364.42236,114.28433,363.53268,117.798,361.758,120.422z"/>
<path class="st2" d="M391.92499,61.452c-2.22604-0.02337-4.38,0.78834-6.03699,2.275c-1.75394,1.58399-2.7009,3.87387-2.578,6.234
	c-0.10388,2.35682,0.83987,4.63892,2.578,6.234c3.45288,3.03295,8.62012,3.03295,12.073,0
	c1.75479-1.58347,2.70221-3.87362,2.57901-6.234c0.11545-2.35905-0.83066-4.646-2.57901-6.234
	C396.31177,62.22826,394.15317,61.41468,391.92499,61.452z"/>
<rect x="384.85699" y="84.6" class="st2" width="14.34799" height="50.716"/>
<path class="st2" d="M450.01501,97.173c-0.62799-2.67699-1.84598-5.17993-3.565-7.326
	c-1.80807-2.14529-4.14474-3.78156-6.77899-4.747c-3.44299-1.2276-7.08548-1.79946-10.73901-1.686
	c-4.05737,0.00574-8.1084,0.32032-12.11801,0.941c-3.18741,0.46092-6.34314,1.11919-9.44901,1.971v48.944h14.34799V96.139
	c0.88-0.148,1.927-0.241,3.064-0.348s2.229-0.152,3.26099-0.152c3.306,0,5.58099,0.939,6.82501,2.866s1.83499,5.188,1.83499,9.844
	v26.923h14.35202v-28.65C451.08578,103.44219,450.73828,100.26966,450.01501,97.173z"/>
<path class="st3" d="M505.76199,120.831c-1.15878,0.47832-2.35013,0.87365-3.565,1.183
	c-1.52887,0.41884-3.08447,0.73323-4.65601,0.941c-1.9502,0.26717-3.9166,0.39882-5.88501,0.394
	c-3.03976,0.09177-6.06277-0.48266-8.85699-1.683c-2.31622-1.0368-4.34982-2.6143-5.92999-4.6
	c-1.54266-2.04492-2.65225-4.38285-3.26099-6.871c-0.66403-2.8233-0.99496-5.71468-0.98599-8.615
	c-0.08704-3.34653,0.43201-6.68122,1.53201-9.843c0.90393-2.45303,2.30295-4.69382,4.10999-6.583
	c1.66437-1.65632,3.67386-2.92483,5.88501-3.715c2.18167-0.74973,4.47211-1.13423,6.77899-1.138
	c3.13794-0.05701,6.26837,0.32605,9.29999,1.138c2.48468,0.66273,4.89011,1.59318,7.17401,2.775L511.755,72.1
	c-0.54599-0.3-1.38-0.744-2.51801-1.335c-1.4053-0.67298-2.86066-1.236-4.353-1.684c-1.99216-0.61799-4.02423-1.09911-6.082-1.44
	c-2.548-0.4514-5.13248-0.66466-7.72-0.637c-4.63501-0.03877-9.23999,0.74679-13.60001,2.32
	c-4.03912,1.46085-7.71689,3.77311-10.784,6.78c-3.11966,3.1216-5.54819,6.86421-7.12799,10.985
	c-1.80817,4.71732-2.69879,9.73656-2.62399,14.788c0,11.132,2.82199,19.687,8.509,25.723s13.93799,9.055,24.828,9.055
	c4.5361,0.06364,9.06174-0.45253,13.46698-1.536c3.12482-0.73918,6.13376-1.90265,8.94299-3.45799l-4.15601-12.073
	C507.733,119.937,506.793,120.392,505.76199,120.831z"/>
<path class="st3" d="M552.57397,88.859c-1.86719-1.94215-4.20117-3.37305-6.77899-4.156
	c-3.43018-1.03896-7.00391-1.52505-10.58698-1.44c-1.68402,0-3.367,0.106-5.10699,0.168c-1.638,0.2-3.17102,0.349-4.65698,0.592
	s-2.86603,0.489-4.10999,0.789c-1.22803,0.288-2.27502,0.591-3.10901,0.834l1.83502,11.572
	c2.00458-0.71188,4.07874-1.20998,6.18799-1.486c2.39014-0.35777,4.80322-0.54025,7.21997-0.546
	c3.66998,0,6.23401,0.743,7.71997,2.229c1.51807,1.57333,2.32385,3.70077,2.229,5.885v1.327
	c-1.14905-0.32686-2.32733-0.54021-3.51801-0.637c-1.42603-0.137-3.06403-0.243-4.94501-0.243
	c-2.6911-0.00175-5.375,0.27776-8.008,0.834c-2.41486,0.4799-4.72559,1.38387-6.82501,2.67
	c-1.98291,1.19102-3.61945,2.88035-4.74701,4.9c-1.24377,2.30763-1.85608,4.90279-1.77502,7.523
	c-0.08838,2.68616,0.43549,5.35723,1.53198,7.811c1.01416,2.07213,2.55103,3.84407,4.45898,5.14101
	c2.09308,1.36302,4.42395,2.32001,6.87097,2.821c2.92493,0.62411,5.90936,0.92592,8.90002,0.89999
	c4.45117,0.03714,8.89832-0.27718,13.29999-0.94c3.65399-0.592,6.47699-1.138,8.55402-1.577V103.95
	c0.03381-2.88425-0.31287-5.76038-1.03101-8.554C555.5379,92.95271,554.29779,90.70706,552.57397,88.859z M543.45898,124.859
	c-1.0119,0.18036-2.03638,0.28067-3.06403,0.3c-1.27399,0.061-2.60901,0.106-4.04901,0.106l0,0
	c-2.16382,0.13566-4.32294-0.33057-6.23798-1.347c-1.53198-0.849-2.27502-2.426-2.27502-4.656
	c-0.02094-1.01186,0.25287-2.00798,0.78802-2.867c0.53131-0.79361,1.26685-1.42926,2.12903-1.84001
	c0.96564-0.51176,2.02155-0.83102,3.10901-0.94c1.26331-0.15395,2.53442-0.23508,3.80701-0.243
	c1.05988-0.00291,2.11884,0.0639,3.16998,0.2c0.8808,0.08704,1.75659,0.21887,2.62402,0.395L543.45898,124.859z"/>
<path class="st3" d="M597.81799,111.43c-1.41473-1.46711-3.0531-2.70074-4.854-3.655
	c-2.51874-1.33598-5.12891-2.49187-7.81097-3.459c-1.30011-0.44711-2.57153-0.97376-3.80701-1.577
	c-0.83191-0.37302-1.62878-0.81981-2.38098-1.335c-0.48328-0.3253-0.87512-0.7691-1.138-1.289
	c-0.20837-0.48335-0.31067-1.00576-0.29999-1.532c0-2.517,2.23401-3.761,6.73401-3.761c2.21338-0.00935,4.42108,0.2254,6.58301,0.7
	c1.84424,0.39998,3.66254,0.91125,5.44501,1.531l2.51703-11.178c-2.19025-0.78131-4.44305-1.37479-6.73401-1.774
	c-2.9201-0.55191-5.88519-0.83111-8.85699-0.834c-6.17932-0.00467-11.02765,1.38033-14.54498,4.155
	c-3.48322,2.68628-5.4549,6.88921-5.29401,11.285c-0.06067,2.13973,0.28967,4.27125,1.03198,6.279
	c0.66217,1.69284,1.67499,3.22643,2.97198,4.5c1.3642,1.32166,2.93781,2.40836,4.65698,3.216
	c1.98962,0.99294,4.03546,1.86909,6.12701,2.624c2.24579,0.76397,4.41412,1.73899,6.47601,2.912
	c1.20905,0.53899,2.02472,1.69801,2.12402,3.018c0.12689,1.23551-0.52582,2.42017-1.638,2.973
	c-1.79193,0.64781-3.69885,0.91615-5.59998,0.788c-2.53729,0.00313-5.06531-0.3062-7.52698-0.921
	c-2.5647-0.55512-5.08051-1.31592-7.52301-2.275L562.04999,133.5c2.04053,0.76106,4.12292,1.40477,6.237,1.92799
	c3.68219,0.82799,7.45056,1.21007,11.224,1.138c6.87097,0,12.164-1.274,15.92499-3.853c3.76202-2.51801,5.64203-6.34,5.64203-11.33
	c0.03778-1.89355-0.21271-3.78182-0.74298-5.6C599.82007,114.16734,598.96136,112.68232,597.81799,111.43z"/>
<path class="st3" d="M649.09802,97.188c-0.60382-2.66522-1.78418-5.16582-3.45801-7.326
	c-1.74579-2.10616-3.99396-3.73869-6.53699-4.747c-3.26898-1.22692-6.74725-1.79911-10.237-1.684
	c-1.47754,0.00184-2.95135,0.14922-4.40002,0.44c-1.25574,0.24193-2.49646,0.55612-3.716,0.941v-24.3l-14.34802,2.321v72.437H620.75
	V96.731c0.99115-0.30446,1.99878-0.55252,3.01801-0.743c1.18756-0.24397,2.39771-0.36096,3.60999-0.349
	c3.16998,0,5.40002,0.939,6.58301,2.866s1.77399,5.188,1.77399,9.844v26.939h14.349V106.637
	C650.13501,103.45921,649.80402,100.2868,649.09802,97.188z"/>
<path class="st3" d="M127.394,61.417c21.10474,14.79111,26.22293,43.89043,11.43182,64.99516
	c-3.11644,4.44672-6.98511,8.31538-11.43182,11.43183h35.069V61.417H127.394z"/>
<path class="st3" d="M53.976,99.624c-0.01178-15.21857,7.4109-29.48338,19.881-38.207H38.75v76.41399h35.107
	C61.38665,129.1076,53.96388,114.84265,53.976,99.624z"/>
<ellipse transform="matrix(0.70711 -0.70711 0.70711 0.70711 -40.96404 100.31346)" class="st3" cx="100.60704" cy="99.60471" rx="38.18099" ry="38.181"/>
<path class="st4" d="M118.65,101.755l-0.029-0.125v-0.008l-0.007-0.013c-0.015-0.06-0.028-0.121-0.046-0.179
	c-0.02824-0.07378-0.04575-0.15125-0.052-0.23l-0.021-0.04v-0.007c-0.012-0.04-0.023-0.08-0.037-0.124v-0.007
	c-0.44773-1.49911-1.33627-2.82877-2.55-3.816l-0.109-0.086l-0.05-0.036l-0.036-0.028l-0.015-0.013l-0.035-0.023L115.65,97
	l-0.034-0.024l-0.015-0.012l-0.037-0.028l-0.018-0.011l-0.036-0.027l-0.019-0.012l-0.039-0.025l-0.019-0.011l-0.022-0.035
	l-0.022-0.014l-0.038-0.026l-0.021-0.014l-0.039-0.025l-0.021-0.015l-0.039-0.025l-0.021-0.015l-0.04-0.029l-0.045-0.038
	l-0.045-0.028l-0.02-0.014l-0.044-0.027l-0.021-0.015L114.95,96.5l-0.021-0.015l-0.044-0.027l-0.024-0.012l-0.045-0.028
	l-0.023-0.012L114.75,96.385l-0.023-0.014l-0.05-0.028l-0.024-0.012l-0.049-0.029l-0.024-0.012l-0.05-0.029l-0.025-0.016
	l-0.049-0.028l-0.026-0.016l-0.052-0.026l-0.026-0.015l-0.053-0.028l-0.035-0.018c-0.026-0.015-0.053-0.027-0.079-0.043
	c-1.09169-0.56053-2.2703-0.93244-3.486-1.1c0.34091-0.3666,0.65285-0.75911,0.933-1.174l0.045-0.066l0.021-0.033l0.027-0.043
	l0.014-0.021l0.027-0.044l0.015-0.021l0.027-0.045l0.014-0.02l0.027-0.044l0.015-0.02l0.027-0.045l0.014-0.02l0.024-0.043
	l0.014-0.02l0.024-0.043l0.012-0.018l0.023-0.043l0.011-0.018l0.024-0.043l0.011-0.018l0.021-0.041l0.01-0.02l0.022-0.04l0.01-0.019
	l0.021-0.04l0.01-0.02l0.023-0.036l0.011-0.02l0.022-0.037l0.012-0.019l0.019-0.035l0.011-0.02l0.018-0.034l0.009-0.017l0.019-0.036
	l0.007-0.017l0.019-0.036l0.009-0.016l0.018-0.036l0.008-0.017l0.015-0.034l0.008-0.017l0.016-0.034l0.008-0.017l0.015-0.034
	l0.008-0.017l0.018-0.039l0.023-0.05c0.017-0.039,0.031-0.077,0.048-0.115c0.52367-1.29117,0.64632-2.71012,0.352-4.072v-0.007
	c-0.007-0.038-0.016-0.075-0.026-0.112v-0.009l-0.016-0.03c-0.011-0.052-0.023-0.1-0.039-0.16s-0.029-0.108-0.044-0.16l-0.02-0.036
	v-0.007l-0.033-0.109c-0.39814-1.33361-1.18884-2.51634-2.269-3.394c-0.031-0.026-0.065-0.049-0.1-0.076l-0.042-0.031l-0.029-0.02
	l-0.015-0.013l-0.03-0.022l-0.015-0.013l-0.028-0.023l-0.017-0.012l-0.029-0.019l-0.015-0.014l-0.035-0.024l-0.015-0.012
	l-0.034-0.025l-0.015-0.013l-0.035-0.023l-0.018-0.011l-0.035-0.025l-0.018-0.011l-0.035-0.024l-0.018-0.016l-0.038-0.022
	l-0.018-0.011l-0.038-0.023l-0.019-0.011l-0.037-0.022l-0.019-0.012l-0.038-0.022l-0.018-0.011l-0.04-0.026l-0.018-0.01l-0.04-0.026
	l-0.018-0.011l-0.043-0.024l-0.052-0.079l-0.041-0.024l-0.021-0.014l-0.042-0.024l-0.021-0.015l-0.043-0.023l-0.02-0.015
	l-0.045-0.027l-0.023-0.013l-0.045-0.026l-0.023-0.014l-0.048-0.024l-0.024-0.013l-0.047-0.026l-0.034-0.015l-0.071-0.039
	c-2.29512-1.1382-4.9278-1.39577-7.4-0.724l-0.693,0.178L98.997,75.7l-4.063,1.04l1.748,6.8l-3.251,0.833l-1.751-6.779l-4.063,1.043
	l1.753,6.8L80.989,87.6l1.119,4.332l3.378-0.867c1.11658-0.28728,2.25489,0.3839,2.544,1.5l4.682,18.235
	c0.19014,0.74514-0.25634,1.50416-1,1.7l-2.962,0.756l0.174,5.154l8.371-2.151l1.771,6.789L103.129,122l-1.75-6.805l3.251-0.834
	l1.75,6.806l4.061-1.046l-1.755-6.83c0.688-0.18,1.28-0.333,1.69-0.439c2.80008-0.68197,5.25416-2.36427,6.9-4.73l0.049-0.073
	l0.025-0.034l0.031-0.051l0.016-0.025l0.032-0.052l0.015-0.025l0.029-0.049l0.015-0.026l0.029-0.05l0.013-0.023l0.028-0.05
	l0.013-0.023l0.028-0.049l0.012-0.025l0.026-0.047l0.013-0.024l0.026-0.048l0.012-0.023l0.027-0.045l0.012-0.023l0.027-0.045
	l0.013-0.023l0.024-0.043l0.013-0.024l0.023-0.042l0.013-0.024l0.024-0.043l0.009-0.022l0.024-0.043l0.01-0.021l0.02-0.041
	l0.011-0.019l0.02-0.041l0.012-0.018l0.02-0.041l0.011-0.019l0.021-0.041l0.011-0.018l0.02-0.041l0.011-0.019l0.021-0.041
	l0.011-0.018l0.017-0.04l0.011-0.018l0.017-0.039l0.008-0.017l0.019-0.044l0.025-0.056c0.019-0.044,0.039-0.086,0.055-0.127
	C118.837,104.87897,118.97704,103.28551,118.65,101.755z M96.795,97.236L94.639,89c0.693-0.178,3.562-0.9,4.505-1.144
	c1.37497-0.37895,2.83918-0.26505,4.139,0.322l0.039,0.017l0.017,0.008l0.024,0.012l0.012,0.006l0.023,0.014l0.013,0.006
	l0.023,0.012l0.012,0.007l0.024,0.012l0.012,0.006l0.024,0.014l0.012,0.006l0.024,0.012l0.012,0.007l0.024,0.012l0.012,0.006
	l0.023,0.014l0.012,0.006l0.024,0.012l0.012,0.007l0.02,0.014l0.013,0.006l0.02,0.015l0.012,0.006l0.021,0.015l0.011,0.006
	l0.019,0.011l0.012,0.006l0.019,0.012l0.012,0.006l0.018,0.011l0.012,0.006l0.02,0.011l0.011,0.007l0.019,0.011l0.008,0.008
	l0.02,0.011h0.006l0.019,0.011h0.006l0.02,0.011h0.007l0.018,0.012l0.007,0.005l0.015,0.013h0.008l0.018,0.011l0.025,0.016
	c0.02,0.011,0.037,0.028,0.055,0.038c0.59199,0.44647,1.02689,1.06941,1.242,1.779l0.005,0.01l0.019,0.058l0.011,0.021
	c0.007,0.029,0.016,0.055,0.024,0.084c0.008,0.03044,0.01302,0.06159,0.015,0.093l0.011,0.019
	c0.00298,0.02013,0.00801,0.03989,0.015,0.059l0.006,0.01c0.15107,0.72552,0.06989,1.48019-0.232,2.157l-0.027,0.06l-0.014,0.03
	l-0.011,0.018v0.01l-0.008,0.018v0.01l-0.011,0.018v0.01l-0.012,0.019v0.01l-0.011,0.019v0.01l-0.011,0.019v0.01l-0.011,0.018v0.01
	l-0.01,0.019l-0.008,0.012l-0.011,0.018l-0.006,0.012l-0.011,0.02l-0.006,0.012l-0.011,0.018l-0.006,0.012l-0.015,0.021
	l-0.007,0.012l-0.014,0.02l-0.006,0.012l-0.014,0.02l-0.008,0.012l-0.014,0.02l-0.006,0.013l-0.014,0.02l-0.006,0.012l-0.016,0.021
	l-0.006,0.012l-0.014,0.02l-0.006,0.011l-0.015,0.022l-0.006,0.011l-0.018,0.022l-0.006,0.013l-0.018,0.022l-0.006,0.012
	l-0.017,0.023l-0.008,0.011l-0.017,0.022l-0.013,0.016l-0.024,0.034c-0.85597,1.14203-2.08528,1.94778-3.474,2.277
	C100.35,96.309,97.489,97.058,96.795,97.236z M110.218,105.423l-0.036,0.066l-0.017,0.031l-0.013,0.024l-0.006,0.012l-0.012,0.018
	l-0.006,0.013l-0.011,0.019l-0.006,0.011l-0.015,0.02l-0.006,0.013l-0.015,0.02l-0.006,0.012l-0.014,0.021l-0.007,0.012l-0.014,0.02
	l-0.006,0.012l-0.015,0.021l-0.007,0.011l-0.014,0.02l-0.006,0.012l-0.014,0.021l-0.008,0.012l-0.014,0.02l-0.006,0.013l-0.014,0.02
	l-0.007,0.012l-0.018,0.023l-0.006,0.011l-0.017,0.022l-0.007,0.012l-0.015,0.026l-0.007,0.012l-0.015,0.026l-0.007,0.012v0.037
	l-0.009,0.014l-0.015,0.025l-0.011,0.014l-0.019,0.027l-0.009,0.014L109.75,106.2l-0.01,0.013l-0.019,0.027l-0.01,0.013
	l-0.019,0.028l-0.01,0.014l-0.019,0.027l-0.015,0.017l-0.032,0.038c-1.06763,1.28334-2.52341,2.18495-4.148,2.569
	c-1.12,0.289-4.509,1.175-5.334,1.385l-2.315-8.969c0.822-0.214,4.22-1.067,5.341-1.357
	c1.60847-0.44666,3.31844-0.35928,4.873,0.249l0.044,0.02l0.022,0.009l0.032,0.012h0.016l0.028,0.013h0.015l0.03,0.015h0.015
	l0.029,0.014l0.012,0.006l0.028,0.014l0.013,0.006l0.028,0.015l0.012,0.007l0.029,0.013l0.012,0.007l0.024,0.012l0.012,0.006
	l0.024,0.014l0.012,0.006l0.024,0.012l0.012,0.007l0.023,0.012l0.012,0.006l0.024,0.014l0.012,0.006l0.024,0.012l0.012,0.007
	l0.023,0.012l0.012,0.006l0.025,0.013l0.011,0.007l0.024,0.012l0.013,0.006l0.02,0.015l0.011,0.007l0.021,0.014l0.012,0.006
	l0.02,0.015l0.012,0.006l0.021,0.014l0.012,0.007l0.02,0.014l0.012,0.007l0.019,0.011l0.012,0.006l0.02,0.015l0.028,0.019
	l0.064,0.042c0.67685,0.45638,1.17915,1.12856,1.425,1.907l0.007,0.013c0.007,0.022,0.012,0.04,0.02,0.061l0.012,0.02
	c0.007,0.029,0.015,0.06,0.024,0.092c0.014,0,0.017,0.041,0.012,0.086v0.025l0.01,0.019
	c0.00264,0.02206,0.00732,0.04382,0.014,0.065C110.70908,103.86311,110.59238,104.69579,110.218,105.423z"/>
</svg>
